<?xml version="1.0" standalone="no"?><!DOCTYPE svg PUBLIC "-//W3C//DTD SVG 1.1//EN" "http://www.w3.org/Graphics/SVG/1.1/DTD/svg11.dtd"><svg t="1720082616037" class="icon" viewBox="0 0 1024 1024" version="1.1" xmlns="http://www.w3.org/2000/svg" p-id="5682" xmlns:xlink="http://www.w3.org/1999/xlink" width="200" height="200"><path d="M512 512m-512 0a512 512 0 1 0 1024 0 512 512 0 1 0-1024 0Z" fill="#E8F1FD" p-id="5683"></path><path d="M806.1 662.9h-37.5V540.4c0-29.1-23.7-52.8-52.8-52.8H528.1V361h38.1c19.4 0 35.2-15.8 35.2-35.2V217.3c0-19.4-15.8-35.2-35.2-35.2H457.7c-19.4 0-35.2 15.8-35.2 35.2v108.6c0 19.4 15.8 35.2 35.2 35.2h35.3v126.5h-185c-29.1 0-52.8 23.7-52.8 52.8v122.5h-37.5c-19.4 0-35.2 15.8-35.2 35.2v108.6c0 19.4 15.8 35.2 35.2 35.2h108.6c19.4 0 35.2-15.8 35.2-35.2V698.2c0-19.4-15.8-35.2-35.2-35.2h-36V540.4c0-9.7 7.9-17.7 17.7-17.7h185v140.2h-35.2c-19.4 0-35.2 15.8-35.2 35.2v108.6c0 19.4 15.8 35.2 35.2 35.2h108.6c19.4 0 35.2-15.8 35.2-35.2V698.1c0-19.4-15.8-35.2-35.2-35.2h-38.1v-140h187.7c9.7 0 17.7 7.9 17.7 17.7V663h-36c-19.4 0-35.2 15.8-35.2 35.2v108.6c0 19.4 15.8 35.2 35.2 35.2h108.6c19.4 0 35.2-15.8 35.2-35.2V698.2c-0.1-19.5-15.9-35.3-35.4-35.3M457.7 217.3h108.6v108.6H457.7V217.3M326.3 806.7H217.8V698.2h108.6v108.5m239.8 0H457.7V698.2h108.6v108.5m239.8 0H697.6V698.2h108.6v108.5z" fill="#6CA4E6" p-id="5684"></path></svg>